{
  "accessors": [
    {
      "bufferView": 2,
      "componentType": 5126,
      "count": 5536,
      "max": [
        7.529951095581055,
        19.256290435791016,
        5.358883857727051
      ],
      "min": [
        -7.2737250328063965,
        6.34489107131958,
        -6.0299391746521
      ],
      "type": "VEC3"
    },
    {
      "bufferView": 2,
      "byteOffset": 66432,
      "componentType": 5126,
      "count": 5536,
      "max": [
        1.0,
        1.0,
        1.0
      ],
      "min": [
        -1.0,
        -1.0,
        -1.0
      ],
      "type": "VEC3"
    },
    {
      "bufferView": 3,
      "componentType": 5126,
      "count": 5536,
      "max": [
        1.0,
        1.0,
        1.0,
        1.0
      ],
      "min": [
        -1.0,
        -1.0,
        -1.0,
        -1.0
      ],
      "type": "VEC4"
    },
    {
      "bufferView": 1,
      "componentType": 5126,
      "count": 5536,
      "max": [
        0.9939299821853638,
        0.9941089749336243
      ],
      "min": [
        0.0048779998905956745,
        0.0048779998905956745
      ],
      "type": "VEC2"
    },
    {
      "bufferView": 0,
      "componentType": 5125,
      "count": 19938,
      "type": "SCALAR"
    },
    {
      "bufferView": 2,
      "byteOffset": 132864,
      "componentType": 5126,
      "count": 10150,
      "max": [
        5.088881015777588,
        3.6373350620269775,
        4.045391082763672
      ],
      "min": [
        -2.7140839099884033,
        0.10202000290155411,
        -6.313239097595215
      ],
      "type": "VEC3"
    },
    {
      "bufferView": 2,
      "byteOffset": 254664,
      "componentType": 5126,
      "count": 10150,
      "max": [
        0.9999578595161438,
        1.0,
        0.9999682307243347
      ],
      "min": [
        -0.9999145269393921,
        -1.0,
        -0.9999610185623169
      ],
      "type": "VEC3"
    },
    {
      "bufferView": 3,
      "byteOffset": 88576,
      "componentType": 5126,
      "count": 10150,
      "max": [
        1.0,
        1.0,
        0.9993453025817871,
        1.0
      ],
      "min": [
        -0.9998294115066528,
        -1.0,
        -0.9993289113044739,
        -1.0
      ],
      "type": "VEC4"
    },
    {
      "bufferView": 1,
      "byteOffset": 44288,
      "componentType": 5126,
      "count": 10150,
      "max": [
        0.9992489814758301,
        0.9992280006408691
      ],
      "min": [
        0.00048600000445730984,
        0.00048600000445730984
      ],
      "type": "VEC2"
    },
    {
      "bufferView": 0,
      "byteOffset": 79752,
      "componentType": 5125,
      "count": 28794,
      "type": "SCALAR"
    },
    {
      "bufferView": 2,
      "byteOffset": 376464,
      "componentType": 5126,
      "count": 20504,
      "max": [
        5.078648090362549,
        13.328864097595215,
        8.645273208618164
      ],
      "min": [
        -6.079322814941406,
        0.3488900065422058,
        -4.257937908172607
      ],
      "type": "VEC3"
    },
    {
      "bufferView": 2,
      "byteOffset": 622512,
      "componentType": 5126,
      "count": 20504,
      "max": [
        1.0,
        1.0,
        1.0
      ],
      "min": [
        -1.0,
        -1.0,
        -1.0
      ],
      "type": "VEC3"
    },
    {
      "bufferView": 3,
      "byteOffset": 250976,
      "componentType": 5126,
      "count": 20504,
      "max": [
        1.0,
        1.0,
        1.0,
        1.0
      ],
      "min": [
        -1.0,
        -1.0,
        -1.0,
        -1.0
      ],
      "type": "VEC4"
    },
    {
      "bufferView": 1,
      "byteOffset": 125488,
      "componentType": 5126,
      "count": 20504,
      "max": [
        1.8062560558319092,
        0.9971150159835815
      ],
      "min": [
        0.0019120000069960952,
        0.0019120000069960952
      ],
      "type": "VEC2"
    },
    {
      "bufferView": 0,
      "byteOffset": 194928,
      "componentType": 5125,
      "count": 90468,
      "type": "SCALAR"
    }
  ],
  "asset": {
    "extras": {
      "author": "shashkinv1ad (https://sketchfab.com/shashkinv1ad)",
      "license": "CC-BY-4.0 (http://creativecommons.org/licenses/by/4.0/)",
      "source": "https://sketchfab.com/3d-models/operating-table-e3a4512227d34b098e2ef0d11c8a80fd",
      "title": "Operating Table"
    },
    "generator": "Sketchfab-12.68.0",
    "version": "2.0"
  },
  "bufferViews": [
    {
      "buffer": 0,
      "byteLength": 556800,
      "name": "floatBufferViews",
      "target": 34963
    },
    {
      "buffer": 0,
      "byteLength": 289520,
      "byteOffset": 556800,
      "byteStride": 8,
      "name": "floatBufferViews",
      "target": 34962
    },
    {
      "buffer": 0,
      "byteLength": 868560,
      "byteOffset": 846320,
      "byteStride": 12,
      "name": "floatBufferViews",
      "target": 34962
    },
    {
      "buffer": 0,
      "byteLength": 579040,
      "byteOffset": 1714880,
      "byteStride": 16,
      "name": "floatBufferViews",
      "target": 34962
    }
  ],
  "buffers": [
    {
      "byteLength": 2293920,
      "uri": "scene.bin"
    }
  ],
  "images": [
    {
      "uri": "textures/LAmp_baseColor.png"
    },
    {
      "uri": "textures/LAmp_metallicRoughness.png"
    },
    {
      "uri": "textures/LAmp_emissive.jpeg"
    },
    {
      "uri": "textures/LAmp_normal.png"
    },
    {
      "uri": "textures/Table_baseColor.png"
    },
    {
      "uri": "textures/Table_metallicRoughness.png"
    },
    {
      "uri": "textures/Table_normal.png"
    },
    {
      "uri": "textures/material_baseColor.png"
    },
    {
      "uri": "textures/material_metallicRoughness.png"
    },
    {
      "uri": "textures/material_emissive.png"
    },
    {
      "uri": "textures/material_normal.png"
    }
  ],
  "materials": [
    {
      "alphaMode": "BLEND",
      "doubleSided": true,
      "emissiveFactor": [
        1.0,
        1.0,
        1.0
      ],
      "emissiveTexture": {
        "index": 2
      },
      "name": "LAmp",
      "normalTexture": {
        "index": 3
      },
      "pbrMetallicRoughness": {
        "baseColorTexture": {
          "index": 0
        },
        "metallicRoughnessTexture": {
          "index": 1
        }
      }
    },
    {
      "doubleSided": true,
      "name": "Table",
      "normalTexture": {
        "index": 6
      },
      "pbrMetallicRoughness": {
        "baseColorTexture": {
          "index": 4
        },
        "metallicRoughnessTexture": {
          "index": 5
        }
      }
    },
    {
      "doubleSided": true,
      "emissiveFactor": [
        1.0,
        1.0,
        1.0
      ],
      "emissiveTexture": {
        "index": 9
      },
      "name": "material",
      "normalTexture": {
        "index": 10
      },
      "pbrMetallicRoughness": {
        "baseColorTexture": {
          "index": 7
        },
        "metallicRoughnessTexture": {
          "index": 8
        }
      }
    }
  ],
  "meshes": [
    {
      "name": "LAMP_LP:LAMP_03_lowLAMP_03polySurface14_LAmp_0",
      "primitives": [
        {
          "attributes": {
            "NORMAL": 1,
            "POSITION": 0,
            "TANGENT": 2,
            "TEXCOORD_0": 3
          },
          "indices": 4,
          "material": 0,
          "mode": 4
        }
      ]
    },
    {
      "name": "LAMP_LP:LAMP_03_lowLAMP_03polySurface14_Table_0",
      "primitives": [
        {
          "attributes": {
            "NORMAL": 6,
            "POSITION": 5,
            "TANGENT": 7,
            "TEXCOORD_0": 8
          },
          "indices": 9,
          "material": 1,
          "mode": 4
        }
      ]
    },
    {
      "name": "LAMP_LP:LAMP_03_lowLAMP_03polySurface14_I_0",
      "primitives": [
        {
          "attributes": {
            "NORMAL": 11,
            "POSITION": 10,
            "TANGENT": 12,
            "TEXCOORD_0": 13
          },
          "indices": 14,
          "material": 2,
          "mode": 4
        }
      ]
    }
  ],
  "nodes": [
    {
      "children": [
        1
      ],
      "matrix": [
        1.0,
        0.0,
        0.0,
        0.0,
        0.0,
        2.220446049250313e-16,
        -1.0,
        0.0,
        0.0,
        1.0,
        2.220446049250313e-16,
        0.0,
        0.0,
        0.0,
        0.0,
        1.0
      ],
      "name": "Sketchfab_model"
    },
    {
      "children": [
        2
      ],
      "matrix": [
        1.0,
        0.0,
        0.0,
        0.0,
        0.0,
        0.0,
        1.0,
        0.0,
        0.0,
        -1.0,
        0.0,
        0.0,
        0.0,
        0.0,
        0.0,
        1.0
      ],
      "name": "87e36745af34455abffcd7a7c786c1ad.fbx"
    },
    {
      "children": [
        3
      ],
      "name": "RootNode"
    },
    {
      "children": [
        4,
        5,
        6
      ],
      "name": "LAMP_LP:LAMP_03_lowLAMP_03polySurface14"
    },
    {
      "mesh": 0,
      "name": "LAMP_LP:LAMP_03_lowLAMP_03polySurface14_LAmp_0"
    },
    {
      "mesh": 1,
      "name": "LAMP_LP:LAMP_03_lowLAMP_03polySurface14_Table_0"
    },
    {
      "mesh": 2,
      "name": "LAMP_LP:LAMP_03_lowLAMP_03polySurface14_I_0"
    }
  ],
  "samplers": [
    {
      "magFilter": 9729,
      "minFilter": 9987,
      "wrapS": 10497,
      "wrapT": 10497
    }
  ],
  "scene": 0,
  "scenes": [
    {
      "name": "Sketchfab_Scene",
      "nodes": [
        0
      ]
    }
  ],
  "textures": [
    {
      "sampler": 0,
      "source": 0
    },
    {
      "sampler": 0,
      "source": 1
    },
    {
      "sampler": 0,
      "source": 2
    },
    {
      "sampler": 0,
      "source": 3
    },
    {
      "sampler": 0,
      "source": 4
    },
    {
      "sampler": 0,
      "source": 5
    },
    {
      "sampler": 0,
      "source": 6
    },
    {
      "sampler": 0,
      "source": 7
    },
    {
      "sampler": 0,
      "source": 8
    },
    {
      "sampler": 0,
      "source": 9
    },
    {
      "sampler": 0,
      "source": 10
    }
  ]
}
